Patient4_TMGait_0pt3_02_left_01_EMG.mot
version=1
nRows=19
nColumns=33
inDegrees=no
endheader
time	1LAddLong	2LGlutMax	3LGlutMed	4LIliopsoas	5LSemiMemb	6LBicFemLong	7LRecFem	8LVastMed	9LVastLat	10LGasMed	11LTibAnt	12lTibPost	13LPeroneusLong	14LSol	15LExtDigLong	16LFlexDigLong	17RAddLong	18RGlutMax	19RGlutMed	20RIliopsoas	21RSemiMemb	22RBicFemLong	23RRecFem	24RVastMed	25RVastLat	26RGasMed	27RTibAnt	28RTibPost	29RPeroneusLong	30RSol	31RExtDigLong	32RFlexDigLong
2.555	0.003815	-0.040588	0.037994	-0.028839	0.005341	0.014648	-0.037689	-0.008545	0.031281	-0.21973	-0.070648	0.008087	-0.019989	-0.10269	0.040588	-0.001373	-0.00824	0.001526	-0.1152	0.043488	-0.17319	0.024872	0.002441	-0.03952	0.003357	0.027161	0.45609	-0.037689	-0.010223	0.014343	0.001068	-0.014648
2.556	0.007477	-0.02121	0.018768	-0.014801	-0.017395	0.011902	0.020752	-0.006104	0.025177	-0.22812	-0.029602	-0.000916	-0.41901	-0.12756	0.10529	0.006866	0.001678	0.011597	0.001221	0.045319	-0.32745	0.002899	0.092316	-0.082245	-0.049744	0.041504	0.54688	0.069885	0.006866	-0.06134	0.003815	-0.011444
2.557	-0.001984	-0.05722	-0.051117	-0.00885	0.001984	0.010529	0.03952	-0.003815	-0.033875	0.064697	0.000305	-0.004272	-0.27542	-0.13123	0.027618	0.005341	0.014496	-0.012817	-0.02182	-0.020752	-0.62714	0.041809	0.076447	-0.068054	-0.074158	0.048523	0.040894	0.028687	0.13031	-0.11993	0.001373	-0.013428
2.558	0.00412	-0.087433	-0.11414	0.004425	-0.007935	-0.009918	0.028381	-0.000916	-0.028839	0.17716	0.003967	-0.00061	-0.048676	-0.071411	0.000763	0.006866	0.02655	-0.038147	-0.032806	-0.043945	-0.82489	0.13367	0.15564	-0.11978	-0.090637	0.041199	-0.42267	-0.007172	0.11017	0.005035	-0.00061	-0.010223
2.559	-0.007477	-0.075226	-0.09903	0.000153	0.043335	-0.030823	0.019531	-0.014801	-0.00351	0.17609	0.028992	-0.003815	0.057831	-0.21606	0.038452	-0.004425	0.024261	-0.081482	0.10971	-0.043945	-0.7251	0.13489	0.18417	-0.093384	-0.066071	0.036774	-0.14099	-0.005646	0.075531	0.036011	-0.000916	-0.012665
2.56	0.003815	-0.070648	-0.019989	-0.005035	0.048065	-0.025787	0.009155	-0.010223	0.015717	0.12253	0.013733	0.000305	-0.10376	-0.31876	-0.005951	-0.008087	0.004883	-0.037384	0.062103	-0.054474	0.21408	0.13306	0.12512	-0.066376	-0.028687	0.037689	-0.002289	-0.007629	0.049896	0.056152	-0.007019	-0.014954
2.561	0.006256	-0.044403	0.062408	0.003357	0.04425	-0.016479	0.009003	-0.00885	-0.050049	0.40756	-0.012665	0.012054	-0.49561	-0.1886	0.015411	0.009613	-0.021667	-0.022278	0.13473	0.025024	0.46509	0.093689	0.073547	0.055389	-0.038452	0.031433	0.14999	-0.007172	0.050812	0.067596	-0.007935	-0.019989
2.562	0.001221	-0.069275	-0.030975	0.004272	0.028381	0.01297	0.028992	-0.003662	-0.052338	0.51148	-0.000153	0.013885	-0.32608	-0.23743	-0.008698	-0.003815	-0.048676	-0.023651	0.034943	0.10712	0.057983	0.075531	-0.010681	0.075073	0.050659	0.036163	-0.058594	-0.00412	0.074005	0.040436	-0.001221	-0.008698
2.563	-0.007019	-0.088501	-0.11032	0.018463	0.019226	0.005188	0.065155	0.002747	-0.063019	0.39948	-0.03891	0.008087	0.3186	-0.34424	-0.036316	0.00412	-0.052643	-0.045929	-0.10452	0.11414	-0.097046	0.056763	-0.13001	0.028687	0.073547	0.038605	-0.27878	-0.005188	0.033417	0.038757	-0.001068	-0.011597
2.564	0.00351	-0.075073	-0.063019	0.033417	0.024109	-0.007629	0.043793	0.004578	-0.038452	0.065308	-0.031891	0.014191	0.031281	-0.35523	0.033112	-0.001526	-0.047302	-0.047607	-0.20981	0.09079	-0.045776	-0.020905	-0.11887	0.099487	0.045929	0.039368	-0.24796	-0.005035	-0.005188	0.051422	0.00824	-0.009003
2.565	0.004578	-0.061493	0.077057	0.010529	0.011597	0.034637	0.040131	0.014801	-0.005646	-0.14191	-0.015259	0.010376	0.018768	-0.13794	0.049438	-0.005493	-0.040436	-0.041656	-0.16968	0.049744	-0.0177	-0.10635	-0.097504	0.13138	0.089264	0.030823	-0.10452	-0.004883	0.013885	0.030975	-0.001678	-0.015106
2.566	0.009766	-0.071716	-0.00412	0.003815	0.020752	0.03006	0.077362	0.016022	0.054321	-0.35584	-0.033264	0.033264	0.20996	0.094147	0.067596	-0.014343	-0.013123	-0.076599	-0.25925	0.022736	-0.061798	-0.18997	-0.058136	0.090332	0.033875	0.016632	-0.000305	-0.006256	0.12268	0.016479	-0.000458	-0.01358
2.567	0.006104	-0.047607	0.04364	0.002136	0.015106	0.002136	0.044098	0.011444	0.20996	-0.26062	-0.022125	0.041962	-0.002441	0.18173	0.026398	-0.006256	-0.012207	-0.055847	-0.33386	-0.000153	-0.17456	-0.20676	0.009308	0.033875	0.007324	0.005493	0.031586	-0.010223	0.3035	0.02594	-0.001221	-0.012665
2.568	0.00824	-0.045013	0.006256	0.003967	0.020294	-0.009766	-0.024872	-0.005951	0.10178	-0.25894	0.001678	0.007324	-0.15533	0.28107	0.019684	0.004272	-0.012512	-0.023041	-0.033722	-0.02594	-0.17777	-0.15869	-0.054626	0.12558	0.04837	0.006866	0.016327	-0.010071	0.21347	0.057831	-0.001526	-0.010681
2.569	0.001984	-0.02594	-0.048218	-0.00824	0.01297	-0.023956	-0.017395	-0.007935	-0.01709	-0.18677	-0.08316	0.007629	-0.10056	0.30899	0.062866	0.002289	-0.003357	-0.010376	0.002441	-0.055084	-0.17258	-0.11887	-0.043488	0.091858	0.12817	0.010834	-0.026855	-0.005341	-0.27252	0.051422	0.000153	-0.00351
2.57	-0.005188	-0.046844	-0.021515	0.008698	0.018616	-0.017548	0.005493	0.011749	0.007782	-0.11047	-0.077362	0.000305	-0.17838	0.26443	0.068359	0.001221	0.007935	-0.003967	0.08606	-0.11276	-0.16464	-0.092621	0.063629	0.007477	0.15533	0.000763	-0.018005	-0.009155	-0.36926	0.058746	-0.001678	-0.003815
2.571	-0.000916	-0.053253	-0.090485	0.014191	0.016174	-0.01358	0.021057	-0.027313	-0.003357	-0.077515	-0.049438	0.006256	0.003357	0.21271	-0.003662	0.000763	0.010681	-0.024261	0.24902	-0.081787	-0.10376	-0.12238	0.18463	-0.045471	0.15518	-0.000305	0.007019	-0.009613	-0.63355	0.11917	0.002441	-0.015717
2.572	0.015564	-0.07782	-0.15961	0.010223	0.00824	-0.001373	-0.019073	-0.007172	0.043488	-0.064392	-0.054626	0.000458	0.22003	0.12512	-0.11856	-0.011292	0.016174	-0.075836	0.17838	-0.005646	-0.10712	-0.14313	0.233	-0.15427	0.13199	-0.004272	0.026245	-0.013733	-0.18478	0.05661	-0.001831	-0.008392
2.573	0.007477	-0.044556	-0.17242	-0.00473	0.016785	-0.010223	0.028534	-0.042877	0.058594	-0.03418	0.13794	0.000305	0.15396	0.13107	-0.11292	-0.001068	0.019836	-0.054474	-0.046539	-0.007172	-0.11322	-0.12726	0.046692	-0.24521	0.14236	0.001221	0.024414	-0.00473	0.090179	0.017242	-0.000305	-0.004272
